<svg width="1200" height="1200" viewBox="0 0 1200 1200" fill="none" xmlns="http://www.w3.org/2000/svg">
<path d="M327.6 670H310.6L294 633H216.8L200.2 670H183.2L246 530H264.8L327.6 670ZM221.2 621.2H289.8L255.4 545.8L221.2 621.2ZM354.942 673.4H342.542L412.542 526.6H424.942L354.942 673.4ZM521.445 528C532.779 528 543.379 530.4 553.245 535.2C563.245 539.867 571.579 546.333 578.245 554.6L565.845 562C560.379 555.6 553.845 550.6 546.245 547C538.645 543.4 530.445 541.6 521.645 541.6C510.979 541.6 501.179 544.2 492.245 549.4C483.312 554.6 476.245 561.667 471.045 570.6C465.845 579.533 463.245 589.333 463.245 600C463.245 610.667 465.845 620.467 471.045 629.4C476.245 638.333 483.312 645.4 492.245 650.6C501.179 655.8 510.979 658.4 521.645 658.4C530.445 658.4 538.645 656.6 546.245 653C553.979 649.4 560.579 644.4 566.045 638L578.245 645.4C571.579 653.667 563.245 660.2 553.245 665C543.379 669.667 532.779 672 521.445 672C508.245 672 496.045 668.8 484.845 662.4C473.645 655.867 464.712 647.133 458.045 636.2C451.512 625.133 448.245 613.067 448.245 600C448.245 586.933 451.512 574.933 458.045 564C464.712 552.933 473.645 544.2 484.845 537.8C496.045 531.267 508.245 528 521.445 528ZM741.467 670H724.467L707.867 633H630.667L614.067 670H597.067L659.867 530H678.667L741.467 670ZM635.067 621.2H703.667L669.267 545.8L635.067 621.2ZM871.809 543H787.409V596.6H864.609V609H787.409V670H773.009V530H871.809V543ZM1010.6 543H921.198V593H1003.6V605.4H921.198V657H1012.6V670H906.798V530H1010.6V543Z" fill="white"/>
</svg>
