<svg width="1200" height="1200" viewBox="0 0 1200 1200" fill="none" xmlns="http://www.w3.org/2000/svg">
<path d="M220.701 398.401C227.031 397.65 241.901 398.163 248.464 398.278C250.834 401.067 252.711 403.112 255.842 405.06C260.806 408.707 268.532 410.834 273.356 414.236C282.921 420.981 293.993 425.389 303.74 431.302C327.378 445.64 352.589 456.878 375.597 472.274C380.231 475.601 384.289 478.898 386.947 484.052C393.479 496.721 392.787 506.06 392.727 519.562L392.625 557.884L392.747 603.872C392.798 611.729 393.079 621.112 392.753 628.912C391.824 633.138 390.683 647.824 388.943 650.976C380.296 666.632 349.213 678.459 335.106 686.948C323.367 694.736 308.921 700.208 297.202 707.405C279.56 718.244 262.756 726.569 244.323 735.941C243.46 736.397 242.587 736.829 241.704 737.244C231.293 742.044 223.236 735.818 213.134 732.661C208.265 731.135 205.572 726.855 200.933 724.821C188.059 719.168 176.633 711.538 164.286 705.072C148.947 697.033 133.66 688.895 118.425 680.658C111.72 677.08 104.315 673.391 97.7713 669.772C93.4538 666.778 85.3443 663.054 82.4427 659.02C73.4972 646.585 74.6197 638.909 74.6139 624.398L74.601 588.461L74.6051 523.185C74.6086 514.801 74.197 502.246 75.2108 494.085C75.4499 492.158 81.9844 476.878 83.4168 475.846C98.1209 464.978 116.321 458.326 131.888 448.698C160.976 430.71 191.042 415.344 220.701 398.401ZM157.034 611.653C162.877 616.394 186.23 629.596 194.048 634.296C201.313 638.663 226.707 654.559 232.268 656.617C239.53 654.174 262.059 639.143 270.203 634.43C277.274 630.344 301.455 617.704 305.933 613.331C306.624 611.256 307.139 608.788 307.176 606.596C307.567 583.216 307.24 559.802 307.233 536.418C307.232 532.326 307.173 528.412 306.424 524.373C301.041 517.13 277.508 505.338 268.905 499.892C264.874 497.342 235.941 478.17 233.046 477.772C209.732 491.986 186.832 506.487 162.889 519.742C161.568 520.472 158.052 522.869 157.63 524.448C156.195 534.63 156.854 546.514 156.902 556.744L157.034 611.653Z" fill="white"/>
<path d="M487.274 501.888C504.264 500.915 521.724 502.486 539.266 501.775C566.021 500.69 605.792 503.337 603.471 540.397C602.786 551.256 594.339 558.545 586.282 564.8C607.604 573.728 616.572 593.652 605.476 614.483C589.72 637.74 551.817 632.022 527.207 632.747C521.074 632.928 490.692 633.366 486.887 631.724C485.257 625.205 485.719 612.939 485.744 605.824L485.945 567.852L485.779 526.873C485.768 521.191 484.891 506.297 487.274 501.888ZM568.116 604.012C573.835 598.75 575.628 589.022 570.049 584.234C561.099 576.557 534.523 579.025 523.529 579.212C522.264 580.252 521.767 580.533 521.768 582.749C521.771 588.771 520.668 600.393 523.112 605.532C526.751 608.537 553.529 606.444 559.588 606.146C562.715 605.994 565.267 605.316 568.116 604.012ZM562.724 550.821C572.765 538.928 565.197 529.095 551.588 528.399C542.521 527.934 531.13 527.351 522.164 528.193C521.414 532.774 521.066 548.885 522.648 552.987C526.598 556.347 556.874 554.218 562.724 550.821Z" fill="white"/>
<path d="M1002.93 501.863C1008.75 501.539 1030.33 501.225 1035.73 502.669C1038.71 503.465 1037.63 519.661 1037.58 523.639C1037.47 534.477 1037.43 545.316 1037.48 556.154C1037.52 579.241 1035.87 611.343 1070.77 604.842C1078.05 603.486 1081.17 598.797 1084.65 593.003C1093.22 578.744 1084.46 511.821 1089.69 502.794C1092.94 500.963 1118.62 501.735 1123.82 501.971C1124.84 509.228 1124.3 525.245 1124.23 533.096C1124.27 569.735 1131.44 618.657 1087.05 632.15C1056.59 641.411 1014.73 633.238 1004.83 598.68C1000.12 582.217 1002.08 564.83 1001.78 547.903C1001.84 539.798 1000.13 507.127 1002.93 501.863Z" fill="white"/>
<path d="M867.065 554.168C875.502 542.885 882.219 529.299 889.416 517.126C892.053 512.672 894.637 507.162 898.337 503.517C901.74 500.17 927.897 501.77 933.357 501.792C924.664 517.84 913.684 535.417 904.266 551.244C898.022 561.708 888.568 575.458 884.4 586.8C881.623 594.36 886.23 627.298 882.143 632.115C879.91 633.039 854.028 633.156 850.21 632.209C849.17 631.958 848.152 631.478 847.983 630.286C846.129 617.26 848.749 598.709 846.469 586.005C845.685 581.615 834.425 563.935 831.689 559.13C820.932 540.222 807.982 520.894 797.698 501.793C809.958 501.725 822.218 501.775 834.472 501.943C839.131 506.07 861.558 545.603 867.065 554.168Z" fill="white"/>
<path d="M691.324 501.881C696.591 501.578 722.175 501.163 725.811 502.76C726.887 508.28 726.583 518.302 726.583 524.318L726.536 556.189L726.583 603.076C726.589 607.894 727.302 629.403 725.414 632.665C719.567 632.817 695.299 633.442 691.236 631.805C689.733 625.55 690.189 611.495 690.195 604.474L690.236 562.783L690.178 524.672C690.178 519.554 689.529 505.757 691.324 501.881Z" fill="white"/>
</svg>
