<svg width="1200" height="1200" viewBox="0 0 1200 1200" fill="none" xmlns="http://www.w3.org/2000/svg">
<path d="M580.755 324.647C733.219 314.286 865.176 429.573 875.374 582.048C885.575 734.523 770.15 866.355 617.661 876.392C465.405 886.417 333.811 771.201 323.627 618.953C313.443 466.708 428.519 334.992 580.755 324.647ZM667.946 726.437C698.017 724.245 718.18 716.593 742.202 698.075C751.439 691.022 759.932 683.048 767.556 674.277C796.139 641.175 806.755 600.721 803.502 557.587C799.405 503.242 756.409 467.643 703.156 467.431C674.485 467.803 645.862 467.408 617.195 467.543C612.811 467.564 609.759 468.07 608.718 472.839C607.351 479.093 606.506 485.429 605.509 491.752L600.108 524.848L575.28 674.33L569.779 707.432C569.393 709.757 568.832 712.314 568.586 714.626C567.982 720.288 564.761 726.939 573.382 727.012C579.385 727.06 585.304 727.028 591.233 727.016L624.827 726.996L652.292 726.947C656.345 726.911 664.235 726.919 667.946 726.437ZM454.983 725.142C465.438 720.401 475.157 714.92 484.301 707.947C520.155 680.611 544.257 635.706 559.808 594.279C572.58 560.258 580.475 524.916 586.875 489.23C587.714 484.553 590.687 472.967 589.018 469.049C588.756 468.437 588.447 468.397 587.856 468.207C583.889 466.934 534.645 467.221 528.595 467.723C526.22 469.208 524.854 470.822 524.487 473.68C522.912 485.965 521.933 498.025 519.401 510.229C509.419 558.352 496.844 610.489 462.172 647.327C450.035 660.151 435.478 666.758 418.845 668.796C415.126 669.251 409.627 669.331 409.592 673.461C408.541 681.125 406.507 694.207 405.908 701.22C405.404 707.115 400.672 729.296 403.135 732.147C410.213 740.342 448.756 727.752 454.983 725.142Z" fill="white"/>
<path d="M667.89 527.683C714.898 525.074 747.704 548.373 736.621 597.975C731.394 621.394 722.104 638.593 701.741 651.939C694.459 656.536 686.203 659.761 677.831 661.715C671.686 663.155 648.854 666.593 643.518 662.909C642.54 662.234 642.162 661.349 641.977 660.211C640.916 653.657 647.338 620.891 648.85 611.635L660.564 540.349C661.694 533.69 659.603 528.536 667.89 527.683Z" fill="white"/>
</svg>
