<svg width="1200" height="1200" viewBox="0 0 1200 1200" fill="none" xmlns="http://www.w3.org/2000/svg">
<path d="M457.125 349.192L648.946 349.193C681.451 349.193 715.571 348.675 747.886 349.336C748.166 371.963 747.936 395.109 747.936 417.775C742.776 417.859 738.211 417.903 733.026 417.675C732.896 400.801 733.511 382.046 732.856 365.397C726.871 364.121 700.511 364.593 693.026 364.592L605.246 364.728L516.245 364.722C503.879 364.721 480.626 364.047 468.924 365.412C465.899 368.868 467.187 414.127 467.213 421.909L467.313 565.494C467.314 573.422 466.753 637.115 468.193 639.825C471.886 641.335 542.664 640.595 550.901 640.595L725.591 640.705C727.871 640.7 729.756 640.955 731.716 639.92C732.671 638.695 732.961 638.515 733.006 636.73C733.186 629.805 733.111 622.685 733.106 615.765L733.056 574.601L732.936 447.285C714.576 446.875 696.036 447.288 677.671 447.171C668.781 447.115 658.966 447.472 650.156 446.928C650.066 441.992 650.161 436.893 650.191 431.945C681.751 431.271 716.316 431.873 748.006 431.936L748.016 656.135C736.761 656.715 722.936 656.405 711.501 656.415L646.526 656.43L452.533 656.41C452.101 631.24 452.493 604.82 452.492 579.575L452.467 430.879L452.465 372.584C452.465 369.641 452.291 351.665 452.712 349.851C453.879 348.922 455.509 349.193 457.125 349.192Z" fill="white"/>
<path d="M492.833 384.688L712.896 384.776C713.016 395.795 712.926 406.914 712.916 417.942C707.481 418.114 702.041 418.087 696.606 417.86L696.596 400.427C655.371 399.79 612.911 400.398 571.588 400.372L529.253 400.344C521.838 400.341 510.658 400.026 503.58 400.873C502.946 412.771 503.477 429.849 503.472 442.094L503.428 521.081L503.378 572.759C503.293 582.876 502.614 595.195 503.541 604.995C505.496 605.825 560.673 605.175 567.53 605.15L640.346 605.21C657.091 605.21 675.696 604.82 692.301 605.715C693.911 605.86 693.866 605.805 695.456 605.41C695.731 605.035 696.006 604.665 696.276 604.29C697.071 570.389 696.931 514.85 696.991 482.817C681.951 482.161 665.881 482.793 650.601 482.472C650.416 479.146 649.501 470.256 650.896 467.709C656.591 465.847 703.946 466.951 713.031 467.029C713.266 475.359 713.226 483.853 713.166 492.19C712.876 534.864 713.616 577.66 713.046 620.32L487.171 620.36L487.307 470.806C487.313 443.278 488.008 412.332 486.704 385.051C488.579 384.827 490.912 384.78 492.833 384.688Z" fill="white"/>
<path d="M535.313 431.947C568.718 431.44 603.641 431.761 637.101 431.916C637.171 436.823 637.156 441.731 637.056 446.638C633.041 446.805 628.451 446.807 624.436 446.705C605.741 446.23 586.248 447.466 567.64 446.52C584.57 468.399 578.371 467.05 606.361 466.867C616.606 466.809 626.856 466.826 637.101 466.917C637.176 472.109 637.161 477.303 637.061 482.495C623.606 482.709 609.551 482.598 596.071 482.508C604.471 494.203 614.221 505.487 622.856 517.058C626.851 522.41 631.486 528.311 635.911 533.266C636.171 524.969 636.011 515.882 636.031 507.525L649.566 507.395C651.421 511.473 649.656 528.249 650.816 533.404L651.026 534.361C651.081 534.589 651.136 534.817 651.191 535.045C650.621 539.014 648.916 542.929 648.631 546.884C648.226 552.479 664.416 570.359 668.601 575.379C662.011 575.547 653.876 575.837 647.416 575.129C644.631 572.226 641.046 566.52 638.976 564.797C635.796 564.925 627.306 573.671 624.106 575.751C580.245 604.235 524.231 566.327 533.194 514.845C537.041 492.748 549.658 482.528 566.014 470.949C557.359 461.171 543.417 442.559 535.313 431.947ZM598.126 568.813C607.711 567.139 635.326 556.008 623.466 544.334C616.246 537.223 581.575 487.595 576.022 485.36C537.806 502.071 540.27 552.386 578.316 567.157C585.658 570.008 590.441 569.981 598.126 568.813Z" fill="white"/>
<path d="M606.941 750.46C628.646 749.955 652.741 750.145 674.511 750.415V761.82C661.896 761.965 644.406 762.265 632.061 761.665C635.446 766.24 637.911 770.325 642.786 773.355C651.936 773.895 664.441 773.04 674.506 773.375L674.511 785.035C667.271 785.375 657.936 785.05 650.546 785C657.356 794.39 665.716 804.645 672.941 813.865C673.456 808.995 673.446 804.02 673.526 799.115C677.711 798.78 682.011 798.92 686.216 798.975C685.961 802.845 685.686 806.71 685.391 810.575C684.851 816.12 684.011 821.565 683.526 827.205C687.311 833.675 693.166 837.755 696.231 845.395C688.181 845.635 681.946 847.515 677.726 840.62C675.701 837.305 667.616 845.425 664.966 846.91C658.451 850.555 650.301 852.035 642.756 851.61C632.316 850.96 622.581 846.125 615.756 838.195C602.886 823.52 602.786 799.23 616.626 785.155C619.936 781.79 623.321 778.82 626.866 775.71C620.891 767.62 613.306 758.37 606.941 750.46ZM650.591 838.86C654.021 838.045 669.171 831.945 666.801 827.535C664.126 822.56 637.421 787.75 634.666 786.925C626.911 791.39 621.606 795.65 619.256 804.735C614.111 824.605 630.966 841.76 650.591 838.86Z" fill="white"/>
<path d="M270.536 750C285.192 749.57 284.017 752.345 292.81 763.59L318.956 797.25C322.765 802.21 332.593 815.745 336.863 819.215C339.803 806.025 339.021 796.27 339.008 782.915L339.01 750.125C342.953 750.055 346.449 750.14 350.393 750.29C350.878 759.315 351.032 766.735 351.073 775.825L351.177 797.085C351.192 811.61 351.591 824.565 340.423 835.735C331.446 845.055 323.368 844.83 312.133 845.69C287.437 847.575 269.241 833.08 270.435 807.335C270.654 802.6 270.46 795.395 270.468 790.22L270.536 750ZM325.376 831.545C327.13 830.61 326.663 831.285 327.15 829.705C325.873 825.91 285.998 774.555 282.022 771.37C281.165 777.85 281.209 808.91 282.525 814.96C283.247 818.42 284.718 821.67 286.835 824.495C296.237 836.9 312.177 834.46 325.376 831.545Z" fill="white"/>
<path d="M906.296 750.115C915.196 748.6 926.951 751.385 934.796 755.65C938.361 757.59 944.636 760.505 944.391 765.2C942.741 768.69 940.331 770.22 937.321 772.585C924.616 764.39 923.976 761.81 906.696 762.725C905.891 784.37 906.966 807.24 906.536 828.995C906.266 842.735 933.711 826.645 938.066 823.945C939.371 823.135 943.926 828.685 944.761 829.63L945.601 830.675C946.416 836.65 926.896 843.955 921.301 844.95C875.981 853.005 848.576 805.38 873.386 768.58C880.946 757.365 892.701 752.07 906.296 750.115ZM883.961 820.59C885.941 822.72 891.351 829.06 894.406 827.135C894.566 821.035 894.886 768.575 894.021 767.085L893.431 766.79C875.076 782.16 869.251 799.78 883.961 820.59Z" fill="white"/>
<path d="M972.721 750.09C995.361 749.55 1020.19 749.995 1042.98 750.075L1043 761.9C1028.84 762.145 1014.61 761.735 1000.45 761.805C995.616 761.83 989.766 761.42 985.101 762.615C983.596 764.425 984.121 776.61 984.116 779.945C1003.38 780.3 1022.89 779.68 1042.15 780.16C1042.28 784.12 1042.16 788.12 1042.08 792.085C1033.86 792.68 987.966 791.02 985.206 792.97C984.631 793.38 984.351 794.535 984.251 795.215C983.916 797.41 983.751 801.09 985.111 802.935C986.736 803.89 1024.23 803.52 1029.26 803.525L1042.36 803.535C1042.22 807.38 1042.3 811.63 1042.29 815.505L984.291 815.615C984.216 821.565 984.221 827.515 984.306 833.46C1002.61 834.37 1023.66 833.505 1042.36 833.83C1042.38 837.735 1042.36 841.64 1042.29 845.54C1020.54 846.095 994.591 845.84 972.736 845.475L972.721 750.09Z" fill="white"/>
<path d="M157.014 749.955C159.927 749.92 164.998 749.65 168.206 750.505C173.441 751.89 190.591 781.84 194.31 779.67C204.371 773.8 214.051 758.74 223.493 752.975C226.355 751.23 229.587 750.185 232.928 749.925C235.144 749.73 241.24 749.59 242.876 750.905C242.131 755.88 204.528 784.98 203.157 791.525C204.229 796.28 227.758 824.945 232.577 831.065C235.678 834.91 241.025 841.175 243.105 845.405C237.944 845.555 232.78 845.54 227.62 845.355C215.975 831.42 203.968 813.315 191.988 800.1C187.433 803.465 171.871 817.735 169.019 822.615C167.291 825.575 167.92 840.84 167.969 845.28C164.371 845.365 160.613 845.32 157 845.335L157.014 749.955ZM169.045 803.695C171.508 801.565 174.019 799.44 176.394 797.22C183.692 790.705 185.412 790.425 178.053 781.58C176.017 779.135 171.529 773 169.184 771.615C168.714 781.15 168.879 794.025 169.045 803.695Z" fill="white"/>
<path d="M787.421 750.01C793.991 749.865 800.136 748.66 803.276 755.5C805.716 760.82 808.096 766.145 810.491 771.485L824.891 803.63L836.071 828.83C838.281 833.815 841.391 840.35 843.006 845.4C838.436 845.535 834.386 845.455 829.836 845.325C824.901 836.285 816.271 815.425 811.701 805.22L801.411 782.215C799.131 777.12 796.101 770.925 794.636 765.65C791.521 770.055 789.011 773.695 790.586 779.385C792.261 785.43 795.241 791.155 797.871 796.855C801.301 804.26 804.666 811.695 807.966 819.165C811.131 826.16 817.441 839.235 819.636 846.215C814.906 846.365 811.561 846.46 806.886 846.005C801.226 838.175 786.126 796.05 781.761 793.89C780.136 795.895 775.221 807.54 773.821 810.675L758.406 845.325C754.016 845.455 749.141 845.35 744.711 845.355C746.356 841.45 748.056 837.535 749.831 833.685C762.601 805.965 774.426 777.61 787.421 750.01Z" fill="white"/>
<path d="M469.292 750.195C492.751 749.475 523.44 749.845 547 750.2L547.014 761.9L514.996 761.98C514.74 765.36 514.824 769.465 514.81 772.915C525.426 773.075 536.339 772.985 546.977 773.005L546.992 785.015C541.637 785.365 520.366 785.495 515.005 785.11L515.01 812.495C515.088 823.445 515.055 834.39 514.908 845.335C511.296 845.52 506.722 845.4 503.039 845.405C502.773 835.865 503.777 791.26 501.877 785.82C498.611 784.365 476.865 785.48 470.789 785.01L469.931 784.94C469.892 781.115 469.931 777.245 469.939 773.415C479.975 773.02 490.394 774.165 500.276 772.81C503.22 772.405 502.01 764.67 501.168 762.765C499.227 761.305 474.686 762.07 470.229 761.865L469.292 750.195Z" fill="white"/>
<path d="M379.601 750.465C383.28 750.235 387.158 750.36 390.857 750.415C391.432 763.125 391.646 775.85 391.499 788.575C391.485 794.445 391.032 804.39 391.628 809.685C395.08 810.905 437.129 809.945 445.164 809.985C445.253 814.155 445.166 818.13 445.073 822.29C429.995 822.465 407.934 821.6 392.226 822.95C390.069 823.135 389.863 830.195 390.674 832.345C392.877 834.25 398.249 833.645 401.298 833.59C415.948 833.525 430.598 833.56 445.248 833.71L445.077 845.4C423.398 845.63 401.26 845.405 379.546 845.4C379.354 814.17 379.174 781.645 379.601 750.465Z" fill="white"/>
<path d="M649.566 507.396L651.061 507.723C652.311 510.789 651.771 531.11 651.191 535.046C651.136 534.818 651.081 534.59 651.026 534.362L650.816 533.404C649.656 528.25 651.421 511.473 649.566 507.396Z" fill="white"/>
</svg>
