<svg width="1200" height="1200" viewBox="0 0 1200 1200" fill="none" xmlns="http://www.w3.org/2000/svg">
<path d="M690.995 216.123C700.24 215.875 710.496 216.08 719.813 216.077L767.781 216.139C771.788 226.248 775.355 236.542 779.266 246.69C785.518 262.918 792.001 279.107 798.051 295.408C800.748 302.685 802.762 310.208 805.52 317.507L872.794 495.735C866.776 495.944 860.407 495.843 854.361 495.839C849.88 483.045 844.76 470.71 840.012 458.048L808.618 373.355C796.215 373.051 782.95 373.28 770.494 373.279L705.121 373.341C702.646 378.917 700.968 385.261 698.501 390.748C693.963 400.846 691.335 411.254 687.533 421.518L651.569 517.362C679.247 516.985 707.871 517.346 735.658 517.344L872.195 517.391C872.24 523.143 872.224 528.896 872.151 534.649C842.362 534.883 811.016 535.015 781.235 534.658L781.215 798.311C758.05 798.764 733.483 798.344 710.197 798.34L710.229 783.979L710.245 534.718C688.532 534.598 666.819 534.616 645.107 534.772L545.968 798.336L492.935 798.356C482.618 798.352 470.248 798.631 460.308 798.178C437.206 797.126 411.8 789.248 392.607 776.255C385.06 770.71 374.192 764.244 367.898 757.361C347.259 734.782 331.769 707.711 327.871 677.012C327.093 670.889 327.051 664.132 327.041 658.175C326.721 620.476 341.633 584.243 368.399 557.692C378.329 547.762 381.784 546.444 392.83 539.262C430.852 514.544 462.403 517.334 505.101 517.333L578.277 517.348C580.364 512.163 581.663 507.406 583.497 502.279C586.258 494.558 589.217 486.73 592.125 479.055L620.227 403.519C624.008 393.389 627.984 383.701 631.688 373.367C622.549 373.043 611.864 373.288 602.623 373.289L549.745 373.285L398.581 373.336C397.931 384.893 398.435 401.222 398.437 413.335L398.386 495.817C374.997 496.215 350.541 495.85 327.066 495.853L327.1 216.167C336.223 215.886 346.279 216.077 355.468 216.077L406.888 216.079L446.089 216.061C453.991 216.06 462.671 215.821 470.521 216.308C490.323 217.589 507.482 227.34 520.484 242.127C552.576 278.624 545.973 325.908 510.369 356.809L638.126 356.83C641.244 349.46 643.606 341.53 646.704 334.192C652.414 320.663 656.28 306.789 661.631 293.125C671.64 267.555 681.225 241.779 690.995 216.123ZM398.479 555.74L398.454 760.018C400.738 762.424 401.842 762.582 404.582 764.05C423.832 774.37 442.322 780.412 464.407 780.982C469.349 781.063 474.292 781.079 479.234 781.031C482 773.598 484.731 766.743 487.614 759.391L548.772 594.767C553.746 581.308 559.352 568.032 564.157 554.494C566.522 547.831 569.522 541.339 571.802 534.679L496.074 534.668L472.961 534.666C470.504 534.673 463.171 534.633 460.831 534.935C455.517 535.366 447.342 536.114 442.335 537.307C430.765 540.064 406.299 547.233 398.479 555.74ZM398.58 232.601C398.124 243.016 398.431 255.275 398.434 265.906L398.458 325.278C398.462 333.972 398.981 348.664 398.376 356.779L458.71 356.814C509.26 357.194 540.502 306.375 514.562 261.835C512.302 257.955 509.192 253.973 505.99 250.808C494.733 239.593 479.656 233.043 463.777 232.467C442.066 232.757 420.277 232.362 398.58 232.601ZM801.921 356.828C800.55 352.477 799.588 348.041 797.998 343.828C787.585 316.226 776.775 288.743 766.478 261.094C765.103 257.396 758.528 236.859 757.153 235.385C748.729 255.128 742.008 276.055 733.77 295.915C730.53 303.722 728.059 311.822 725.572 319.878C720.784 332.185 716.113 344.426 711.511 356.804L756.76 356.813L801.921 356.828ZM702.484 232.582C699.993 239.198 697.571 246.05 694.861 252.562C692.01 259.403 690.376 266.168 687.812 273.085L655.921 356.798L680.853 356.845C683.259 356.848 691.104 356.999 693.013 356.722L729.41 259.088C732.536 250.54 736.734 241.312 739.48 232.652C727.311 232.286 714.698 232.691 702.484 232.582ZM687.351 373.337C679.441 373.26 671.531 373.247 663.625 373.296C659.742 373.305 654.186 373.492 650.429 373.172C633.128 414.665 619.067 458.136 602.757 500.022C600.512 505.784 598.098 511.554 595.983 517.346L633.059 517.355C639.958 500.303 646.583 483.138 652.916 465.867C655.488 458.707 657.077 452.585 660.017 444.866C669.048 421.146 678.661 397.134 687.351 373.337ZM364.218 726.197C370.031 733.557 374.041 739.235 381.003 745.794L381.044 623.59L381.045 587.415C381.049 585.021 381.428 571.527 380.54 570.225C376.035 574.968 371.034 580.022 366.989 585.151C364.241 588.635 362.122 593.558 359.894 597.424C338.248 634.966 338.51 681.25 360.153 718.695C361.108 720.345 363.265 724.935 364.218 726.197ZM343.687 232.499L343.671 478.436C356.098 478.546 368.525 478.575 380.952 478.525C381.353 452.407 381.049 425.483 381.047 399.296L381.04 232.648C372.668 232.518 364.294 232.493 355.922 232.574C353.114 232.583 346.006 232.771 343.687 232.499ZM764.161 781.011L764.206 534.738C751.92 534.63 739.399 534.9 727.206 534.697L727.174 706.935C727.178 731.43 727.437 756.471 727.149 780.913C739.488 781.059 751.827 781.091 764.161 781.011ZM534.744 781.019C538.91 770.326 543.36 759.791 546.519 748.775C547.501 745.35 549.093 741.479 550.357 738.086L586.137 642.653L620.247 551.041C622.257 545.583 624.651 540.239 626.629 534.74C614.258 534.63 601.883 534.62 589.512 534.709L497.744 781.031L534.744 781.019Z" fill="white"/>
<path d="M328.417 839.877L669.598 839.86L800.922 839.852C824.527 839.852 849.196 839.513 872.705 839.974C872.745 842.032 872.875 843.86 872.535 845.89L871.872 846.185L327.096 846.153C327.074 844.289 326.765 841.753 327.388 840.172L328.417 839.877Z" fill="white"/>
<path d="M402.461 888.317C412.018 887.71 420.304 894.864 421.099 904.408C421.895 913.953 414.907 922.376 405.381 923.363C399.049 924.014 392.857 921.196 389.193 915.991C385.528 910.786 384.963 904.004 387.715 898.265C390.468 892.523 396.107 888.721 402.461 888.317ZM406.625 915.457C411.913 913.771 414.834 908.121 413.148 902.831C411.463 897.542 405.809 894.622 400.522 896.308C395.235 897.994 392.316 903.648 394.002 908.934C395.687 914.219 401.338 917.139 406.625 915.457Z" fill="white"/>
<path d="M673.088 948.465C684.149 948.392 704.653 945.561 700.908 964.476C700.285 967.606 697.434 969.838 694.785 971.367C697.175 974.982 699.634 978.553 702.161 982.072L696.989 982.371L693.22 982.015C691.214 978.893 690.385 976.43 687.91 972.875C685.152 972.984 683.732 973.037 680.962 972.782L680.934 982.306C678.378 982.367 675.612 982.282 673.028 982.274C672.979 971.003 672.999 959.732 673.088 948.465ZM680.95 966.304C684.545 966.437 689.317 967.238 692.035 964.593C697.83 954.466 686.717 955.421 680.999 955.069L680.95 966.304Z" fill="white"/>
<path d="M512.621 889.405L519.087 889.465C523.964 894.707 531.164 903.887 535.71 909.654L535.769 889.429H543.417L543.434 922.401C540.529 922.611 539.596 922.514 536.735 922.215C531.466 915.194 525.924 909.662 520.393 903.038L520.333 922.465C517.364 922.518 515.565 922.445 512.604 922.186C512.498 911.259 512.503 900.332 512.621 889.405Z" fill="white"/>
<path d="M780.447 889.368L786.8 889.465C791.58 894.355 798.973 904.012 802.641 909.852L802.681 889.433L810.442 889.441C810.555 900.445 810.543 911.449 810.414 922.453C807.66 922.554 806.353 922.453 803.612 922.178L788.11 902.896L788.054 922.473L780.443 922.465L780.447 889.368Z" fill="white"/>
<path d="M451.15 889.405L457.56 889.461C460.719 892.996 471.403 905.824 473.257 909.237L473.301 889.433L481.138 889.429L481.16 922.077C479.581 923.023 476.003 922.38 474.075 922.154C470.161 914.822 464.326 909.561 458.898 903.232C458.919 909.646 458.907 916.055 458.862 922.469C455.899 922.518 454.088 922.445 451.134 922.19C451.026 911.263 451.031 900.332 451.15 889.405Z" fill="white"/>
<path d="M731.109 948.417L756.538 948.493L756.498 955.049C751.487 955.146 743.941 955.255 739.08 954.976L738.918 961.908C744.094 962.021 749.356 962.033 754.54 962.09L754.532 968.152C749.546 968.164 744.559 968.204 739.569 968.269C738.695 968.977 738.938 974.283 738.93 975.645C744.935 975.779 751.07 975.775 757.092 975.856L757.023 982.282C749.481 982.46 738.509 982.577 731.101 982.185L731.109 948.417Z" fill="white"/>
<path d="M857.759 888.782C864.12 888.794 867.942 890.21 872.467 894.61C871.23 896.033 868.949 898.043 867.513 899.386C862.211 894.893 854.346 893.586 849.95 899.992C848.223 902.475 847.645 905.581 848.36 908.521C850.314 916.557 857.925 916.973 864.521 914.786C864.63 911.433 863.74 908.736 865.05 906.143C866.559 905.233 867.048 905.557 869.01 905.573C870.417 905.618 870.639 905.391 871.679 906.026C872.059 909.565 871.832 915.04 871.788 918.733C864.355 923.61 854.463 924.989 846.9 919.513C843.083 916.791 840.571 912.602 839.973 907.951C838.545 896.223 847.014 889.797 857.759 888.782Z" fill="white"/>
<path d="M575.006 889.372L599.627 889.449L599.586 896.005C595.494 896.247 586.266 896.122 582.232 895.932L582.22 902.859L597.633 903.058L597.625 909.12L583.774 909.188C582.991 909.132 583.424 909.095 582.492 909.423C581.896 911.364 582.156 913.702 582.225 915.792C588.117 915.958 594.24 915.902 600.181 916.007L600.116 922.441C592.889 922.631 582.114 922.704 574.999 922.332L575.006 889.372Z" fill="white"/>
<path d="M449.224 948.477L456.985 948.489C457.067 953.233 455.746 971.787 459.529 974.072C475.454 983.681 471.848 956.27 471.871 948.477L478.824 948.489L478.88 954.697C478.932 961.887 480.216 972.819 475.27 978.48C470.358 984.502 458.322 984.049 453.13 978.747C447.271 972.758 449.154 956.553 449.224 948.477Z" fill="white"/>
<path d="M798.56 947.822C803.227 947.992 805.977 948.728 810.078 950.79C809.378 953.015 808.541 954.818 807.603 956.937C803.862 954.972 794.463 951.911 792.947 957.839C793.744 960.46 798.443 961.908 801.031 962.514C809.653 964.548 816.01 970.95 808.719 979.034C805.686 982.399 800.578 982.715 796.13 982.755C790.747 982.14 788.963 981.485 784.135 979.034L786.945 972.952C789.594 974.396 791.576 975.294 794.621 975.807C797.921 976.365 807.963 976.539 802.289 970.776C800.938 969.672 798.115 968.9 796.425 968.512C787.455 966.441 780.6 961.301 787.33 952.105C789.813 948.712 794.577 948.206 798.56 947.822Z" fill="white"/>
<path d="M612.107 948.473L619.2 948.477C619.281 953.84 618.23 971.144 621.024 973.316C637.674 986.253 634.038 952.497 634.099 949.751C636.424 949.395 637.86 949.444 640.177 949.464C642.062 955.943 639.635 966.817 641.483 971.686C638.632 983.398 624.199 986.294 616.224 979.075C610.243 973.66 612.034 956.153 612.107 948.473Z" fill="white"/>
<path d="M345.257 888.782C351.352 888.709 355.638 890.549 359.824 894.905C358.091 896.393 356.319 898.055 354.617 899.6C343.569 889.251 330.759 901.671 337.234 911.514C338.804 913.868 341.28 915.465 344.072 915.926C348.747 916.723 350.781 915.032 354.397 912.493L355.263 912.752L359.757 916.828C344.103 933.514 317.448 914.135 331.269 895.042C334.397 890.723 340.212 889.288 345.257 888.782Z" fill="white"/>
<path d="M406.482 947.834C412.937 947.802 416.473 949.48 421.113 953.73C419.458 955.453 417.746 957.067 416.019 958.717C410.29 953.006 401.18 952.723 398.372 961.543C396.864 966.279 398.414 969.636 400.592 973.753C404.518 975.957 407.413 977.028 411.353 974.986C412.832 974.222 415.061 972.653 416.286 972.244L421.124 976.685C410.379 988.057 391.829 983.244 389.757 967.242C388.372 956.553 395.809 948.776 406.482 947.834Z" fill="white"/>
<path d="M645.701 888.77C652.609 888.968 654.323 890.291 659.302 894.654C657.765 896.171 656.248 897.712 654.756 899.269C650.457 895.471 644.468 894.007 639.562 898.096C636.375 900.749 636.036 903.98 635.741 907.866C636.173 908.91 636.938 910.434 637.548 911.373C639.097 913.75 641.568 915.368 644.367 915.837C648.172 916.46 651.306 915.024 654.343 912.93L654.683 912.695L655.326 913.12L659.257 916.804C656.499 919.877 653.401 922.085 649.248 922.825C644.173 923.707 638.956 922.494 634.79 919.461C631.045 916.719 628.583 912.566 627.976 907.963C626.508 896.264 634.98 889.781 645.701 888.77Z" fill="white"/>
<path d="M555.813 948.469L584.42 948.481L584.459 955.024C581.123 955.126 577.942 955.263 574.6 955.077L574.577 972.535L574.526 982.314C571.605 982.379 569.406 982.258 566.485 982.067L566.459 955.15C562.876 955.138 559.293 955.057 555.712 954.911L555.813 948.469Z" fill="white"/>
<path d="M684.594 889.433C694.085 889.324 703.767 889.417 713.274 889.433L713.282 895.981C710.536 896.134 705.34 896.207 702.715 895.92C702.42 900.304 702.578 906.54 702.574 911.065C702.562 914.863 702.57 918.66 702.594 922.457C699.492 922.518 697.676 922.465 694.587 922.19C694.457 913.593 694.546 904.777 694.498 896.159C691.181 896.098 687.869 896.005 684.557 895.879L684.594 889.433Z" fill="white"/>
<path d="M510.192 948.453L517.932 948.493L517.962 975.512L534.927 975.597L534.912 982.306C527.007 982.5 518.069 982.363 510.171 982.241C509.921 971.254 510.115 959.481 510.192 948.453Z" fill="white"/>
<path d="M741.017 889.421L748.858 889.429L748.939 909.88C748.947 913.402 749.101 919.113 748.717 922.481C746.177 922.51 743.532 922.425 740.968 922.421L741.017 889.421Z" fill="white"/>
<path d="M634.099 949.751L634.366 948.692C636.477 948.142 639.546 948.437 641.859 948.469C641.932 955.174 642.28 965.349 641.483 971.686C639.635 966.817 642.061 955.943 640.177 949.464C637.86 949.444 636.424 949.395 634.099 949.751Z" fill="white"/>
</svg>
