<?xml version="1.0" encoding="UTF-8"?>
<svg id="Layer_2" data-name="Layer 2" xmlns="http://www.w3.org/2000/svg" viewBox="0 0 322.51 56.5">
  <defs>
    <style>
      .cls-1 {
        isolation: isolate;
      }

      .cls-2 {
        fill: #fff;
      }
    </style>
  </defs>
  <g id="Layer_1-2" data-name="Layer 1">
    <g>
      <g class="cls-1">
        <path class="cls-2" d="M83.05,44.93v6.57h-.87v-4.9l-2.18,4.9h-.61l-2.19-4.91v4.91h-.86v-6.57h.93l2.43,5.43,2.43-5.43h.92Z"/>
        <path class="cls-2" d="M92.23,50.03h-2.89l-.53,1.47h-.91l2.39-6.58h1l2.38,6.58h-.91l-.53-1.47ZM91.98,49.32l-1.2-3.34-1.2,3.34h2.39Z"/>
        <path class="cls-2" d="M102,51.5l-1.58-2.71h-1.04v2.71h-.86v-6.62h2.14c.5,0,.92.08,1.27.26.35.17.6.4.77.69.17.29.26.62.26,1,0,.46-.13.86-.39,1.21-.26.35-.66.58-1.18.69l1.66,2.77h-1.04ZM99.38,48.1h1.27c.47,0,.82-.12,1.05-.35.23-.23.35-.54.35-.93s-.12-.7-.35-.91-.58-.32-1.06-.32h-1.27v2.51Z"/>
        <path class="cls-2" d="M111.68,51.5l-2.73-3.02v3.02h-.87v-6.62h.87v3.07l2.74-3.07h1.09l-3,3.32,3.03,3.31h-1.13Z"/>
        <path class="cls-2" d="M118.44,45.58v2.21h2.41v.71h-2.41v2.28h2.7v.71h-3.56v-6.63h3.56v.71h-2.7Z"/>
        <path class="cls-2" d="M130.33,44.88v.7h-1.8v5.92h-.86v-5.92h-1.81v-.7h4.48Z"/>
        <path class="cls-2" d="M136.06,44.88v6.62h-.86v-6.62h.86Z"/>
        <path class="cls-2" d="M146.54,51.5h-.86l-3.48-5.27v5.27h-.87v-6.63h.87l3.48,5.26v-5.26h.86v6.63Z"/>
        <path class="cls-2" d="M156.82,46.8c-.18-.39-.45-.69-.8-.9-.35-.21-.75-.32-1.22-.32s-.88.11-1.25.32c-.37.21-.66.52-.87.91-.21.4-.32.85-.32,1.37s.11.98.32,1.37c.21.39.5.7.87.91.37.21.79.32,1.25.32.65,0,1.18-.19,1.6-.58.42-.39.66-.91.73-1.57h-2.64v-.7h3.56v.67c-.05.54-.22,1.04-.51,1.5-.29.45-.67.81-1.15,1.07-.47.26-1,.39-1.59.39-.61,0-1.17-.14-1.68-.43s-.91-.69-1.2-1.2c-.29-.51-.44-1.09-.44-1.74s.15-1.23.44-1.74c.29-.52.7-.92,1.2-1.21.51-.29,1.07-.43,1.68-.43.7,0,1.33.17,1.87.52.54.35.94.84,1.18,1.47h-1.04Z"/>
        <path class="cls-2" d="M162.89,48.68c-.11-.11-.17-.25-.17-.42s.06-.3.17-.42c.11-.11.25-.17.42-.17s.29.06.4.17c.11.11.17.25.17.42s-.06.3-.17.42c-.11.11-.25.17-.4.17s-.3-.06-.42-.17Z"/>
        <path class="cls-2" d="M179.01,48.19c-.38.36-.95.55-1.72.55h-1.27v2.76h-.87v-6.62h2.14c.75,0,1.32.18,1.71.54s.58.83.58,1.4-.19,1.01-.57,1.37ZM178.35,47.71c.23-.21.34-.51.34-.89,0-.82-.47-1.23-1.41-1.23h-1.27v2.43h1.27c.48,0,.84-.1,1.06-.31Z"/>
        <path class="cls-2" d="M187.94,51.5l-1.58-2.71h-1.04v2.71h-.87v-6.62h2.14c.5,0,.92.08,1.27.26.34.17.6.4.77.69.17.29.26.62.26,1,0,.46-.13.86-.39,1.21-.26.35-.66.58-1.18.69l1.66,2.77h-1.04ZM185.32,48.1h1.27c.47,0,.82-.12,1.05-.35.23-.23.35-.54.35-.93s-.12-.7-.35-.91c-.23-.21-.58-.32-1.06-.32h-1.27v2.51Z"/>
        <path class="cls-2" d="M193.91,48.68c-.11-.11-.17-.25-.17-.42s.06-.3.17-.42c.11-.11.25-.17.42-.17s.29.06.4.17c.11.11.17.25.17.42s-.06.3-.17.42c-.11.11-.25.17-.4.17s-.3-.06-.42-.17Z"/>
        <path class="cls-2" d="M207.1,51.33c-.34-.16-.62-.37-.81-.65-.2-.28-.3-.59-.3-.95h.92c.03.31.16.57.38.78.22.21.55.32.98.32s.74-.1.97-.31.36-.47.36-.79c0-.25-.07-.46-.21-.62-.14-.16-.31-.28-.52-.36-.21-.08-.49-.17-.85-.27-.44-.11-.79-.23-1.05-.34s-.49-.29-.67-.54c-.19-.24-.28-.57-.28-.98,0-.36.09-.68.28-.96s.44-.49.77-.65c.33-.15.71-.23,1.14-.23.62,0,1.13.16,1.53.47.4.31.62.72.67,1.23h-.95c-.03-.25-.17-.48-.4-.67-.23-.19-.54-.29-.93-.29-.36,0-.66.09-.88.28-.23.19-.34.45-.34.78,0,.24.07.44.2.59.14.15.3.27.5.35.2.08.48.17.84.27.44.12.79.24,1.05.36.27.12.49.3.68.54.19.24.29.58.29.99,0,.32-.09.63-.26.91-.17.28-.42.52-.76.69-.34.18-.73.27-1.19.27s-.83-.08-1.17-.23Z"/>
        <path class="cls-2" d="M219.47,50.03h-2.89l-.53,1.47h-.91l2.39-6.58h1l2.38,6.58h-.91l-.53-1.47ZM219.22,49.32l-1.2-3.34-1.2,3.34h2.39Z"/>
        <path class="cls-2" d="M226.62,50.8h2.32v.7h-3.18v-6.62h.87v5.92Z"/>
        <path class="cls-2" d="M234.52,45.58v2.21h2.41v.71h-2.41v2.28h2.7v.71h-3.56v-6.63h3.56v.71h-2.7Z"/>
        <path class="cls-2" d="M243.26,51.33c-.35-.16-.62-.37-.81-.65s-.3-.59-.3-.95h.92c.03.31.16.57.38.78.22.21.55.32.98.32s.74-.1.97-.31c.24-.21.36-.47.36-.79,0-.25-.07-.46-.21-.62s-.31-.28-.52-.36c-.21-.08-.49-.17-.85-.27-.44-.11-.79-.23-1.05-.34s-.49-.29-.67-.54c-.19-.24-.28-.57-.28-.98,0-.36.09-.68.28-.96s.44-.49.77-.65c.33-.15.71-.23,1.14-.23.62,0,1.13.16,1.52.47s.62.72.67,1.23h-.95c-.03-.25-.17-.48-.4-.67-.23-.19-.54-.29-.93-.29-.36,0-.66.09-.88.28-.23.19-.34.45-.34.78,0,.24.07.44.21.59.14.15.3.27.5.35s.48.17.84.27c.44.12.79.24,1.05.36.27.12.49.3.68.54.19.24.29.58.29.99,0,.32-.08.63-.26.91-.17.28-.42.52-.76.69-.34.18-.73.27-1.19.27s-.83-.08-1.17-.23Z"/>
      </g>
      <g class="cls-1">
        <path class="cls-2" d="M91.37,18.96c-1.51,1.46-3.81,2.19-6.9,2.19h-5.09v11.06h-3.46V5.71h8.55c2.99,0,5.26.72,6.82,2.17,1.56,1.44,2.34,3.31,2.34,5.59s-.75,4.04-2.26,5.49ZM88.73,17.04c.91-.84,1.37-2.03,1.37-3.57,0-3.27-1.88-4.9-5.62-4.9h-5.09v9.73h5.09c1.92,0,3.34-.42,4.26-1.25Z"/>
        <path class="cls-2" d="M116.4,11.38v20.82h-3.46v-3.08c-.66,1.06-1.58,1.89-2.75,2.49-1.18.59-2.48.89-3.9.89-1.62,0-3.08-.33-4.37-1.01-1.29-.67-2.31-1.68-3.06-3.02-.75-1.34-1.12-2.98-1.12-4.9v-12.2h3.42v11.74c0,2.05.52,3.63,1.56,4.73,1.04,1.1,2.46,1.65,4.26,1.65s3.31-.57,4.37-1.71c1.06-1.14,1.6-2.8,1.6-4.98v-11.44h3.46Z"/>
        <path class="cls-2" d="M128.31,11.98c1.13-.66,2.5-.99,4.12-.99v3.57h-.91c-3.88,0-5.81,2.1-5.81,6.31v11.32h-3.46V11.38h3.46v3.38c.61-1.19,1.48-2.11,2.6-2.77Z"/>
        <path class="cls-2" d="M155.31,23.08h-16.64c.13,2.05.83,3.65,2.11,4.81,1.28,1.15,2.83,1.73,4.66,1.73,1.49,0,2.74-.35,3.74-1.04,1-.7,1.7-1.63,2.11-2.79h3.72c-.56,2-1.67,3.63-3.34,4.88s-3.75,1.88-6.23,1.88c-1.98,0-3.74-.44-5.3-1.33-1.56-.89-2.78-2.15-3.67-3.78-.89-1.63-1.33-3.53-1.33-5.68s.43-4.04,1.29-5.66c.86-1.62,2.07-2.87,3.63-3.74,1.56-.87,3.35-1.31,5.38-1.31s3.72.43,5.24,1.29c1.52.86,2.69,2.05,3.52,3.55.82,1.51,1.23,3.21,1.23,5.11,0,.66-.04,1.36-.11,2.09ZM150.98,16.87c-.58-.95-1.38-1.67-2.38-2.17-1-.49-2.11-.74-3.33-.74-1.75,0-3.24.56-4.46,1.67-1.23,1.12-1.93,2.66-2.11,4.64h13.15c0-1.32-.29-2.45-.87-3.4Z"/>
        <path class="cls-2" d="M159.98,16.11c.86-1.61,2.05-2.86,3.55-3.74s3.19-1.33,5.04-1.33,3.41.39,4.75,1.18c1.34.79,2.34,1.77,3,2.96v-3.8h3.5v20.82h-3.5v-3.88c-.68,1.22-1.7,2.22-3.06,3.02-1.36.8-2.93,1.2-4.73,1.2s-3.52-.46-5.02-1.37c-1.5-.91-2.67-2.19-3.53-3.84-.86-1.65-1.29-3.52-1.29-5.62s.43-4,1.29-5.6ZM175.37,17.65c-.63-1.17-1.49-2.06-2.56-2.68-1.08-.62-2.26-.93-3.55-.93s-2.47.3-3.53.91c-1.06.61-1.91,1.5-2.55,2.66-.63,1.17-.95,2.53-.95,4.1s.32,2.98.95,4.16c.63,1.18,1.48,2.08,2.55,2.7,1.06.62,2.24.93,3.53.93s2.48-.31,3.55-.93c1.08-.62,1.93-1.52,2.56-2.7s.95-2.55.95-4.12-.32-2.94-.95-4.1Z"/>
        <path class="cls-2" d="M201.97,13.29c1.57,1.53,2.36,3.74,2.36,6.63v12.27h-3.42v-11.78c0-2.08-.52-3.67-1.56-4.77-1.04-1.1-2.46-1.65-4.26-1.65s-3.27.57-4.35,1.71c-1.08,1.14-1.62,2.8-1.62,4.98v11.51h-3.46V11.38h3.46v2.96c.68-1.06,1.62-1.89,2.79-2.47,1.18-.58,2.48-.87,3.89-.87,2.53,0,4.58.77,6.16,2.3Z"/>
        <path class="cls-2" d="M209.99,16.11c.86-1.61,2.05-2.86,3.55-3.74s3.2-1.33,5.07-1.33c1.62,0,3.13.37,4.52,1.12,1.39.75,2.46,1.73,3.19,2.95V4.08h3.5v28.12h-3.5v-3.91c-.68,1.24-1.7,2.26-3.04,3.06-1.34.8-2.91,1.2-4.71,1.2s-3.53-.46-5.04-1.37-2.69-2.19-3.55-3.84c-.86-1.65-1.29-3.52-1.29-5.62s.43-4,1.29-5.6ZM225.38,17.65c-.63-1.17-1.49-2.06-2.56-2.68-1.08-.62-2.26-.93-3.55-.93s-2.47.3-3.53.91c-1.06.61-1.91,1.5-2.55,2.66-.63,1.17-.95,2.53-.95,4.1s.32,2.98.95,4.16c.63,1.18,1.48,2.08,2.55,2.7,1.06.62,2.24.93,3.53.93s2.48-.31,3.55-.93c1.08-.62,1.93-1.52,2.56-2.7s.95-2.55.95-4.12-.32-2.94-.95-4.1Z"/>
        <path class="cls-2" d="M236.13,11.96c1.17-2.06,2.75-3.68,4.77-4.84,2.01-1.17,4.25-1.75,6.71-1.75,2.89,0,5.41.7,7.56,2.09,2.15,1.39,3.72,3.37,4.71,5.93h-4.14c-.74-1.6-1.79-2.83-3.17-3.69s-3.03-1.29-4.96-1.29-3.51.43-4.98,1.29c-1.47.86-2.62,2.08-3.46,3.67-.84,1.58-1.25,3.44-1.25,5.57s.42,3.95,1.25,5.53c.84,1.58,1.99,2.81,3.46,3.67,1.47.86,3.13,1.29,4.98,1.29s3.58-.42,4.96-1.27,2.44-2.07,3.17-3.67h4.14c-.99,2.53-2.56,4.49-4.71,5.87-2.15,1.38-4.67,2.07-7.56,2.07-2.46,0-4.69-.58-6.71-1.73-2.01-1.15-3.6-2.75-4.77-4.81-1.17-2.05-1.75-4.37-1.75-6.95s.58-4.91,1.75-6.97Z"/>
        <path class="cls-2" d="M283.48,11.38v20.82h-3.46v-3.08c-.66,1.06-1.58,1.89-2.75,2.49-1.18.59-2.48.89-3.9.89-1.62,0-3.08-.33-4.37-1.01-1.29-.67-2.31-1.68-3.06-3.02-.75-1.34-1.12-2.98-1.12-4.9v-12.2h3.42v11.74c0,2.05.52,3.63,1.56,4.73,1.04,1.1,2.46,1.65,4.26,1.65s3.31-.57,4.37-1.71c1.06-1.14,1.6-2.8,1.6-4.98v-11.44h3.46Z"/>
        <path class="cls-2" d="M295.39,11.98c1.13-.66,2.5-.99,4.12-.99v3.57h-.91c-3.88,0-5.81,2.1-5.81,6.31v11.32h-3.46V11.38h3.46v3.38c.61-1.19,1.48-2.11,2.6-2.77Z"/>
        <path class="cls-2" d="M322.39,23.08h-16.64c.13,2.05.83,3.65,2.11,4.81,1.28,1.15,2.83,1.73,4.66,1.73,1.49,0,2.74-.35,3.74-1.04,1-.7,1.7-1.63,2.11-2.79h3.72c-.56,2-1.67,3.63-3.34,4.88s-3.75,1.88-6.23,1.88c-1.98,0-3.74-.44-5.3-1.33-1.56-.89-2.78-2.15-3.67-3.78-.89-1.63-1.33-3.53-1.33-5.68s.43-4.04,1.29-5.66c.86-1.62,2.07-2.87,3.63-3.74,1.56-.87,3.35-1.31,5.38-1.31s3.72.43,5.24,1.29c1.52.86,2.69,2.05,3.51,3.55.82,1.51,1.24,3.21,1.24,5.11,0,.66-.04,1.36-.11,2.09ZM318.06,16.87c-.58-.95-1.37-1.67-2.38-2.17s-2.11-.74-3.33-.74c-1.75,0-3.24.56-4.46,1.67-1.23,1.12-1.93,2.66-2.11,4.64h13.15c0-1.32-.29-2.45-.87-3.4Z"/>
      </g>
      <rect class="cls-2" x="65.3" y=".1" width="1" height="56.4"/>
      <g id="rGF8DO.tif1">
        <g>
          <path class="cls-2" d="M0,21.5c0-.7,0-.2,0-.3.2-.1,2.1-.5,2.4-.6,10.3-1.8,20.1,1.7,22.5,12.6.1.6.2,1.6.3,2.1s.9,1.3,1.1,1.7.4.9.6,1.4,0,.5.3.5c.2,0,0-.4,0-.5v-1.3c0-.4,0-.1,0-.3v-2.5c.7.2.4-.6,1-.6v4.2c-.1,0-.1.4,0,.5h0v.3c.2,0,.1-.2.2-.3.2-.5.4-1,.6-1.5s1-1.3,1.2-1.7h0v-.7h0v-.2h.2c0,.2,0,.6.2.8s.8,0,.9.1,0,.5.2.6l.9-.6s.1-.1.1-.2c1.3.3,2.5.6,3.8.8,7.4.7,13.4-3.7,16-10.4.3-.8.8-2.3.9-3s0-.3-.2-.4c.3,0,1.1-.9.9-1s-.4.1-.3-.2c.2,0,1.4.3,1.4.4,0,.3-.7,3-.9,3.5-2.2,6.7-7.3,11.9-14.6,12.7h-1.4c-.2-.2-.8-.2-1,0-1.5,0-2.8-.3-4.3-.8h0c-.1-.1-.3-.1-.5-.2-.4-.1-1.1-.6-1.6-.5s-.2.1-.3.2c-.2,0-.4-.2-.4.2s0,0,0,0l.6.4c0,.1-.8,1.3-1,1.5-1.9,3.3-1.5,7-1.5,10.8-.5,0-1.2.3-1.2-.3-.2-1.3,0-3,0-4.4s-.3-4-1.2-5.7-1.5-2.4-1.8-2.4-1.9.7-2.3.8c-9.9,2.6-18.2-3.1-21.1-12.5M23.4,34.1c-.6-3.8-2.8-7.4-5.9-9.5s-8-3-12.3-2.8-3.4.4-3.5.6c.9,4.2,3.2,8.3,6.6,10.9s6.9,3.2,11,2.7,2.4-.4,2.9-.7.2,0,.2-.2-1.5-1.2-1.8-1.4c-2.1-1.5-4.4-2.8-6.7-4s-7.5-3.3-8.5-4.7-.2-.2,0-.2c.9.1,1.7.4,2.5.6,4.9,1.4,9.1,3.8,13.1,7s1.5,1.3,2.3,1.9l.1-.2Z"/>
          <path class="cls-2" d="M29.5,2.1c4.8,6.6,6.5,13.6.6,20.2s-2.1,2.1-2.4,2.1c-2.7-2.1-5-5-5.8-8.3-1.2-5,1.1-9.9,4-13.9.3-.3,1.6-2.2,1.9-2.2s.8.9,1,1.1c.3.3.5.7.7,1h0ZM27.6,2.3c-2.8,4-5.2,8.8-3.8,13.8.6,2.3,2.2,4.4,4,6,4.2-3.7,5.3-8.5,3.4-13.8s-2.2-4.8-3.2-5.9-.1-.2-.3-.1h-.1Z"/>
          <path class="cls-2" d="M54.3,21c0,.3.3.2.3.2.1.1-.6,1.1-.9,1-6.6-1-14.2-.5-18.6,5.2s-2.6,4.3-2.9,6.7c0,0,.5-.3.6-.3.8-.6,1.5-1.3,2.3-1.9,4.6-3.5,9.3-6,15-7.1s.3,0,.2.1c-.2.4-2.4,1.7-2.9,2-3.3,1.8-6.8,3.2-10,5.2s-3.9,2.5-4.2,3,0,.2,0,.3c0,0,0,.1-.1.2l-.9.6c-.3-.1,0-.5-.2-.6s-.8,0-.9-.1c-.2-.1-.2-.6-.2-.8s-.2,0-.2,0c-.2-.2.4-2.2.5-2.6,3-10.3,13.8-13,23.4-10.8l-.3-.3Z"/>
          <path class="cls-2" d="M28.2,33.9c-.7,0-.4.8-1,.6v-8.7c0-.4.7-.4,1-.3s.2,1.2.2,1.5c0,2.3-.1,4.6,0,7l-.2-.1Z"/>
          <path class="cls-2" d="M27.2,38.6s.2.5,0,.5c-.3,0-.3-.3-.3-.5h.3Z"/>
          <path class="cls-2" d="M31,36.4c0,.2-.1.3-.3.3h0c0-.4.2-.2.4-.2l-.1-.1Z"/>
          <path class="cls-2" d="M38.7,37.6h-1c.2-.2.8-.2,1,0Z"/>
          <path class="cls-2" d="M27.3,37.3c-.1,0-.1-.3,0-.3v.3Z"/>
          <path class="cls-2" d="M28.3,38.6c-.1,0-.1-.4,0-.5v.5Z"/>
          <path class="cls-2" d="M28.5,38.7c0,.1,0,.3-.2.3v-.3h.2Z"/>
        </g>
      </g>
    </g>
  </g>
</svg>