<svg width="1200" height="1200" viewBox="0 0 1200 1200" fill="none" xmlns="http://www.w3.org/2000/svg">
<path d="M588.905 484.796C677.944 478.461 755.271 545.484 761.644 634.521C768.022 723.56 701.032 800.915 611.998 807.331C522.907 813.746 445.492 746.709 439.113 657.614C432.734 568.521 499.808 491.135 588.905 484.796ZM608.708 793.064C689.914 788.465 752.009 718.895 747.386 637.694C742.764 556.489 673.18 494.415 591.974 499.059C510.806 503.701 448.761 573.254 453.381 654.427C458.001 735.595 527.537 797.662 608.708 793.064Z" fill="white"/>
<path d="M595.853 533.817C608.421 532.49 624.999 536.971 635.322 544.087C650.963 554.875 657.275 567.281 661.045 585.089C656.287 586.348 651.509 587.513 646.703 588.584C644.58 573.652 637.976 561.888 624.481 554.391C613.18 548.115 599.157 546.317 586.701 549.925C575.312 553.143 565.683 560.78 559.955 571.137C553.474 583.098 553.515 600.8 562.595 611.415C573.52 624.19 594.959 634.164 609.88 642.184C614.926 640.819 658.904 629.711 660.297 629.974C660.89 631.678 660.97 630.921 660.41 632.333C656.729 633.547 648.821 635.265 644.816 636.272C634.324 638.979 623.789 641.521 613.213 643.888C623.323 649.236 632.154 654.107 641.394 660.918C674.743 685.503 663.705 736.918 627.155 752.315C618.668 755.888 613.754 756.956 604.547 757.973C589.348 758.406 574.094 754.372 561.968 744.967C549.81 735.572 541.892 721.719 539.962 706.478C544.589 705.433 549.442 704.157 554.11 703.06C554.291 705.734 554.772 708.375 555.545 710.935C558.951 722.599 566.126 731.689 576.864 737.45C588.691 743.8 602.551 745.212 615.416 741.38C640.768 733.604 657.176 703.244 639.906 679.073C632.813 669.146 604.1 655.336 592.205 649.127C576.018 653.816 559.066 656.819 542.855 661.464C541.166 661.949 541.202 661.93 539.917 661.069L539.841 660.264C542.112 657.986 582.744 648.76 589.075 647.245C585.551 645.592 582.173 643.677 578.803 641.737C559.334 630.52 544.188 619.162 541.301 595.279C539.627 581.279 543.646 567.196 552.457 556.19C563.882 541.78 578.105 535.779 595.853 533.817Z" fill="white"/>
<path d="M677.93 628.2C695.482 628.106 702.938 625.997 701.752 647.461C701.455 652.808 702.524 655.99 698.603 660.547C694.079 664.623 684.002 663.54 677.958 663.451C678.061 651.698 678.052 639.949 677.93 628.2ZM682.387 659.408C687.137 659.497 692.046 660.358 695.473 657.148C697.784 652.549 699.638 635.425 693.129 632.498C691.241 631.65 684.891 631.956 682.368 631.999L682.387 659.408Z" fill="white"/>
<path d="M498.304 628.148C500.031 628.11 500.748 628.002 502.44 628.468C502.905 631.466 502.666 639.473 502.649 642.862L516.286 642.843C516.258 640.283 515.991 630.76 516.373 628.783C517.676 627.781 519.364 627.946 520.775 628.637C521.806 635.863 520.569 653.698 520.885 661.704C520.937 662.999 520.766 662.843 519.989 663.507C518.776 663.38 517.876 663.22 516.684 663.003C515.822 661.332 516.216 649.763 516.244 647.065L502.61 647.056L502.657 663.234L498.322 663.338L498.304 628.148Z" fill="white"/>
<path d="M551.633 256.141L635.543 256.096L635.529 289.755L585.003 289.77C585.18 300.823 585.049 312.24 585.044 323.318C599.633 323.117 614.667 323.306 629.292 323.306L629.358 356.905C615.274 356.462 599.28 356.828 585.046 356.825L585.069 381.829L585.042 390.627L638.532 390.598C638.353 401.681 638.499 413.165 638.508 424.277L551.598 424.343L551.574 340.842L551.633 256.141Z" fill="white"/>
<path d="M945.76 463.534C947.666 465.667 978.069 546.68 982.536 558.215L835.978 549.94C838.854 556.498 841.72 564.545 844.314 571.303L858.411 607.96C849.656 612.125 836.712 615.952 827.241 620.174C826.107 619.346 790.381 525.467 786.53 515.584C802.642 515.899 818.722 517.506 834.824 518.112C867.811 519.353 900.916 522.089 933.879 523.451C932.495 518.703 929.864 512.637 928.075 507.843C924.013 496.965 919.504 486.135 915.569 475.207C923.524 472.687 937.918 466.87 945.76 463.534Z" fill="white"/>
<path d="M251.18 488.267L280.965 501.993C273.013 512.108 255.065 536.891 268.375 549.245C284.676 564.374 296.422 543.023 305.859 532.24C316.183 520.446 330.506 508.766 346.906 507.933C359.276 507.205 373.268 512.783 382.339 521.11C391.638 529.683 397.107 541.629 397.52 554.27C398.545 579.915 385.228 602.161 368.34 620.377C361.723 616.625 343.393 609.019 335.622 605.7C348.943 597.275 364.64 572.46 363.174 556.04C362.3 542.647 345.73 537.606 336.914 546.98C324.154 560.549 316.189 574.889 298.688 583.881C271.831 597.679 236.502 577.607 231.453 548.596C227.47 525.714 238.69 506.284 251.18 488.267Z" fill="white"/>
<path d="M414.43 295.331C416.199 296.243 432.559 317.702 435.8 321.234C433.789 322.671 431.649 324.435 429.731 326.01C420.986 333.189 411.82 340.036 403.23 347.385L460.016 418.271L477.124 439.532C479.817 442.885 484.59 448.527 486.69 451.904C482.786 455.208 464.327 470.287 460.589 472.519C457.789 469.579 453.891 464.374 451.197 461.013L434.223 439.843L376.844 368.412L344.46 394.383C338.538 387.773 328.94 375.427 323.534 368.208C328.383 364.666 333.422 360.553 338.057 356.697C363.045 335.911 389.687 316.321 414.43 295.331Z" fill="white"/>
<path d="M798.331 306.685C806.483 312.966 817.107 320.791 824.596 327.538C815.191 340.513 802.981 355.3 792.965 368.085L742.195 432.695L769.656 454.251C773.967 457.628 780.072 462.137 784.04 465.707C780.388 470.071 765.697 489.701 763.07 491.917C740.806 473.781 717.266 456.464 694.894 438.321C706.233 425.12 719.314 407.395 730.3 393.38L798.331 306.685Z" fill="white"/>
<path d="M499.201 894.547C526.603 904.22 549.168 902.172 535.096 941.999C531.202 953.023 530.739 964.155 518.072 969.737C507.174 973.686 490.727 965.741 478.791 962.738C485.174 940.078 492.58 917.193 499.201 894.547ZM489.98 957.607C496.298 959.636 507.589 964.432 513.587 962.201C519.928 958.534 522.327 953.503 524.154 946.395C526.35 937.852 533.251 923.02 528.445 914.816C525.378 909.581 511.575 906.687 505.567 904.926C501.026 922.403 494.435 940.365 489.98 957.607Z" fill="white"/>
<path d="M599.689 913.262C609.56 912.891 620.052 911.549 627.381 919.678C633.665 926.645 633.015 936.685 633.396 945.341C634.06 960.497 636.376 978.492 617.209 983.185C613.378 984.009 591.612 984.475 586.84 984.546C585.124 963.18 585.27 935.324 584.745 913.573C589.583 913.615 594.827 913.385 599.689 913.262ZM595.448 976.539C603.05 976.21 612.347 977.066 618.739 973.767C623.648 968.777 625.056 964.861 624.566 957.41C623.921 947.671 626.124 930.876 619.115 923.943C614.823 919.692 602.471 920.911 596.475 921.246L595.736 921.288L594.192 921.495C593.495 923.797 595.368 969.728 595.448 976.539Z" fill="white"/>
<path d="M447.246 867.058C449.949 868.061 453.139 870.457 456.08 871.892C473.067 880.162 492.158 894.128 470.956 911.954C467.723 914.674 462.143 915.357 457.63 915.399C457.181 926.913 456.046 941.34 454.964 952.91L446.006 948.066C446.515 940.144 447.01 931.309 447.903 923.481C448.163 920.088 448.502 916.698 448.922 913.324C445.178 910.923 439.906 908.094 435.907 905.797C431.213 913.78 424.403 925.214 420.433 933.338C417.704 931.86 414.985 930.363 412.277 928.847C414.958 923.072 420.919 913.309 424.273 907.421L447.246 867.058ZM440.069 898.666C445.926 901.617 453.221 907.035 459.08 907.722C466.448 906.894 471.421 900.158 470.313 893.083C469.185 885.882 456.826 882.13 451.668 878.209C448.965 882.497 442.146 894.18 440.069 898.666Z" fill="white"/>
<path d="M673.9 903.265L674.329 903.232C686.868 902.408 695.543 907.266 696.099 921.26C696.377 928.33 693.397 932.552 688.624 937.372C694.644 944.828 707.697 959.137 712.606 966.268C708.911 967.351 705.918 968.193 702.166 968.984C700.547 966.353 681.832 943.138 680.029 942.055L678.118 942.677C674.352 943.778 670.187 944.621 666.204 945.76C668.586 955.842 671.759 966.287 673.802 976.355C670.874 977.066 667.96 977.847 665.065 978.69C660.692 956.925 652.149 932.274 647.64 910.024C653.255 907.901 667.65 904.757 673.9 903.265ZM658.226 914.863C659.746 920.897 662.274 932.241 664.303 937.682C666.247 937.103 668.789 936.27 670.723 935.856C676.23 934.599 682.693 933.488 685.842 928.339C689.377 922.549 686.699 915.013 680.801 912.076C677.977 910.673 675.849 910.763 672.827 911.196C668.003 912.58 663.135 913.804 658.226 914.863Z" fill="white"/>
<path d="M414.556 840.101C415.985 840.934 421.12 845.618 422.666 846.978C420.353 853.46 413.808 866.677 410.792 873.111C404.433 886.677 398.123 901.142 391.419 914.406C389.07 912.396 386.783 910.311 384.563 908.155C386.243 903.703 388.68 898.967 390.773 894.646L383.386 887.953L370.743 876.571C366.582 879.193 362.355 881.956 358.041 884.3C355.971 882.85 353.182 880.116 351.249 878.322C358.775 873.253 368.215 867.924 376.072 863.189C388.845 855.399 401.673 847.708 414.556 840.101ZM378.167 872.095C380.919 874.67 383.685 877.23 386.466 879.772C389.126 882.14 391.801 884.493 394.489 886.832C398.217 879.748 401.719 871.874 405.271 864.648C406.627 861.89 410.519 854.109 411.238 851.558C402.602 856.712 386.12 866.451 378.167 872.095Z" fill="white"/>
<path d="M769.298 855.422C770.592 856.66 779.169 869.972 780.567 872.104C789.839 886.39 799.225 900.6 808.719 914.736C805.627 916.59 803.287 918.482 799.96 920.031C783.075 911.45 764.374 899.56 747.25 890.353C755.982 904.041 769.039 922.022 776.669 935.48C774.687 937.141 771.92 938.963 769.547 939.989C766.991 937.052 759.686 925.435 757.271 921.759C748.427 908.155 739.488 894.613 730.446 881.137C733.477 879.207 735.939 877.635 738.787 875.455C755.37 884.865 775.586 897.131 792.231 905.731C782.313 891.459 771.788 874.961 762.28 860.289C764.6 858.604 766.878 857.225 769.298 855.422Z" fill="white"/>
<path d="M365.511 780.656C366.499 781.658 369.994 786.653 371.022 788.069C364.298 793.435 354.137 800.293 346.884 805.471C351.866 812.885 358.013 820.435 362.691 827.919C367.334 823.73 381.385 814.339 387.001 810.371L392.338 817.898C386.132 822.016 336.262 858.684 334.339 858.764L333.582 857.653C331.982 855.554 330.706 853.615 329.264 851.421C337.579 846.286 347.626 838.355 356.033 832.584C350.774 825.391 345.086 817.757 340.146 810.399C331.509 815.921 322.066 823.49 313.248 829.425L307.959 821.899C325.937 809.599 348.104 793.704 365.511 780.656Z" fill="white"/>
<path d="M814.476 811.289C815.803 813.393 820.105 842.337 820.972 847.279C836.26 851.007 851.53 855.804 866.87 859.343C864.05 861.876 861.852 864.276 859.362 867.105C849.336 865.18 833.426 860.026 822.76 857.225C823.565 862.907 824.685 868.823 825.674 874.491C830.051 878.336 835.036 883.429 839.4 887.539L832.819 894.161L829.063 890.537L798.218 860.61C793.991 856.524 785.452 848.705 782.181 844.709C784.078 842.525 786.271 840.228 788.234 838.058C796.599 845.439 807.406 856.792 815.808 864.799C814.485 859.174 813.398 851.709 812.376 845.862C810.72 836.646 809.124 827.416 807.599 818.176L814.476 811.289Z" fill="white"/>
<path d="M842.403 777.992C849.651 777.248 852.989 778.072 859.211 781.47C857.465 784.196 856.011 786.568 854.429 789.388C850.494 787.246 847.726 785.853 843.156 786.949C837.696 787.877 831.774 795.172 834.128 800.934C842.511 821.414 860.007 795.638 871.233 793.219C884.832 789.42 896.421 802.454 893.94 815.907C892.001 826.432 885.486 834.349 874.825 836.816C867.712 837.691 863.735 836.284 857.79 833.026C859.419 830.419 861.005 827.778 862.549 825.119C871.003 829.868 877.964 829.618 884.05 820.68C885.5 818.651 886.733 812.584 885.533 810.306C872.452 785.5 855.276 829.129 835.549 816.867C818.26 806.126 825.551 781.993 842.403 777.992Z" fill="white"/>
<path d="M614.606 202.059C624.496 200.345 633.886 207.017 635.519 216.919C637.157 226.821 630.412 236.159 620.495 237.716C610.69 239.255 601.478 232.601 599.864 222.809C598.244 213.018 604.83 203.754 614.606 202.059Z" fill="white"/>
<path d="M566.498 202.053C572.922 200.97 579.432 203.429 583.536 208.488C587.639 213.548 588.702 220.425 586.317 226.488C583.931 232.55 578.467 236.859 572.015 237.765C562.229 239.14 553.153 232.397 551.644 222.63C550.135 212.863 556.753 203.696 566.498 202.053Z" fill="white"/>
<path d="M713.317 888.489L713.712 888.569C714.753 889.337 739.62 946.475 742.665 953.362C739.747 954.524 737.568 955.395 734.762 956.831C733.181 955.983 707.702 896.896 705.503 891.888C707.899 891.055 710.935 889.572 713.317 888.489Z" fill="white"/>
</svg>
