<svg width="1200" height="1200" viewBox="0 0 1200 1200" fill="none" xmlns="http://www.w3.org/2000/svg">
<path d="M516.475 547.457C539.264 547.798 562.056 547.881 584.847 547.704C599.926 547.662 616.399 546.63 630.982 549.37C669.507 556.607 688.899 597.618 675.993 633.219C673.037 641.361 663.402 655.7 656.449 660.459C659.847 663.843 662.99 667.939 666.357 671.324C671.33 676.328 675.545 680.188 680.02 685.782C680.22 695.36 680.19 704.94 679.93 714.516L660.979 714.662C657.279 714.714 654.148 714.527 650.478 714.294C637.251 700.424 624.066 686.087 609.943 673.002C594.578 672.299 572.962 673.003 557.126 673.03C557.213 686.892 557.192 700.755 557.062 714.616C543.515 714.662 529.969 714.629 516.423 714.519C515.606 673.51 516.678 632.195 516.258 591.157C516.111 576.668 516.174 561.932 516.475 547.457ZM557.153 631.363C571.076 631.664 585.002 631.779 598.926 631.71C606.884 631.691 627.524 632.977 632.503 626.29C638.747 619.814 638.619 618.662 639.037 610.173C639.746 595.8 628.263 589.033 615.079 589.142C596.31 589.299 577.256 588.908 558.485 589.357L557.17 589.394L557.153 631.363Z" fill="white"/>
<path d="M306.208 547.532C311.937 548.072 325.141 547.75 331.29 547.757L380.564 547.708C416.894 547.569 446.964 546.789 465.209 585.842C471.417 599.129 471.241 620.369 465.634 633.907C457.811 652.797 444.696 662.687 426.381 670.59C412.255 673.941 399.344 673.035 384.835 673.049C372.062 673.103 359.289 673.064 346.516 672.931C347.376 682.874 346.837 704.083 346.427 714.271C335.45 714.955 314.786 713.754 306.039 715C306.613 696.991 306.133 676.175 306.134 657.978L306.208 547.532ZM346.507 631.541L384.99 631.737C397.725 631.763 412.303 633.92 422.53 625.741C426.632 621.168 429.971 615.94 429.25 609.396C426.719 586.421 408.177 589.399 390.544 589.118C376.219 588.891 360.976 589.723 346.62 589.217C346.816 602.815 347.065 617.996 346.507 631.541Z" fill="white"/>
<path d="M939.377 547.349C992.321 549.231 1050 547.24 1103.27 547.443C1103.34 556.324 1103.71 569.047 1102.97 577.61C1086.3 592.219 1068.9 612.729 1053.15 628.561C1038.02 643.757 1023.15 658.411 1008.37 674.032C1038.65 673.205 1072.68 673.899 1103.36 673.832C1103.16 680.06 1104.24 710.955 1102.58 714.184C1067.38 715.449 1030.91 713.314 995.567 714.188C976.926 714.65 957.576 714.819 938.965 714.449C939.231 705.017 938.505 695.276 939.34 685.865C941.69 683.215 945.318 679.997 947.928 677.318L976.605 648.446C996.391 628.29 1014.19 608.822 1034.73 589.055C1003 588.572 970.9 589.437 939.05 588.911C938.995 575.806 938.614 560.208 939.377 547.349Z" fill="white"/>
<path d="M727.339 547.192C735.225 547.739 746.217 547.134 754.895 547.494C758.251 550.289 761.242 553.405 764.307 556.513C789.647 582.21 814.253 608.587 840.005 633.889C843.814 637.634 846.957 641.635 850.876 645.321C849.937 635.693 850.379 619.99 850.379 609.906L850.361 547.334C863.661 547.234 876.96 547.256 890.26 547.399C890.333 602.097 890.865 658.215 890.102 712.809L889.842 713.928C887.232 715.352 865.374 714.588 861.268 714.336C856.472 708.487 852.347 705.006 847.284 699.697C834.045 685.811 820.485 672.229 806.762 658.817C793.977 646.325 780.774 630.401 767.735 618.569C768.141 628.995 768.892 708.138 767.002 713.663C762.411 715.567 734.153 714.578 727.297 714.504L727.339 547.192Z" fill="white"/>
<path d="M178.105 602.473C178.754 601.575 179.42 600.689 180.102 599.815C183.15 595.919 187.121 592.798 190.554 589.236C202.762 576.565 215.025 563.963 226.895 550.986C231.487 545.966 236.508 547.105 242.761 547.124C248.195 547.141 253.828 547.337 259.335 547.46C259.46 557.131 259.763 567.777 259.209 577.344C244.148 591.245 230.361 606.779 215.97 621.342C212.632 624.719 209.568 628.02 206.436 631.586C220.484 646.314 235.07 660.592 248.962 675.489C252.262 679.029 255.716 682.541 259.237 685.862C259.614 690.712 259.806 710.409 258.924 714.351C251.504 715.314 242.914 714.332 235.443 714.772C227.413 715.246 225.342 709.191 219.927 703.708L177.558 660.44C168.418 668.643 156.674 682.215 148.003 691.24C140.624 698.921 132.021 706.507 125.222 714.424C116.318 714.99 104.743 714.603 95.7021 714.524C96.0159 705.267 95.8838 695.371 96.0546 686.009C102.135 677.941 115.018 666.586 122.323 659.023C131.054 649.983 140.297 639.87 149.521 631.45C145.264 627.886 136.514 618.211 132.084 613.723C119.871 601.549 107.768 589.266 95.776 576.875L95.8233 547.23C104.773 547.566 114.303 547.167 123.587 547.488C127.871 551.116 132.285 555.749 136.255 559.746C150.342 573.926 163.773 588.514 178.105 602.473Z" fill="white"/>
</svg>
